# xmcd CD database file
#
# Track frame offsets:
#	150
#	13454
#	30189
#	43140
#	55777
#	68238
#	82415
#	96076
#	110758
#	124268
#	137895
#	150567
#	163782
#	176983
#
# Disc length: 2538 seconds
#
# Revision: 0
# Processed by: cddbd v1.5.2PL0 Copyright (c) Steve Scherf et al.
# Submitted via: CDex 1.70beta2
#
DISCID=ca09e80e
DTITLE=Patrizius - Allein die Liebe zählt
DYEAR=2003
DGENRE=Country
TTITLE0=Ich bin dein Freund
TTITLE1=Gold'ne Hochzeit
TTITLE2=Allein die Liebe zählt im Leben
TTITLE3=Zwei wie wir
TTITLE4=Schenk mir deine Zärtlichkeit
TTITLE5=Liebe über alles
TTITLE6=Führ' deine Frau mal wieder aus
TTITLE7=Das ist so schön an der Liebe
TTITLE8=Nur für dich
TTITLE9=Du hast das Herz am rechten Fleck
TTITLE10=Bring mir Glück Christopherus
TTITLE11=So wie damals Hermann Löns
TTITLE12=Die Braut, die sich nicht traut
TTITLE13=Freunde fallen nicht vom Himmel
EXTD=YEAR: 2003
EXTT0=
EXTT1=
EXTT2=
EXTT3=
EXTT4=
EXTT5=
EXTT6=
EXTT7=
EXTT8=
EXTT9=
EXTT10=
EXTT11=
EXTT12=
EXTT13=
PLAYORDER=
